<svg width="30" height="11" viewBox="0 0 30 11" fill="none" xmlns="http://www.w3.org/2000/svg">
<path d="M28.2792 4.08755L23.0155 0.370483C22.2931 -0.111359 21.1578 -0.111359 20.4353 0.301648C19.7129 0.78349 19.7129 1.54067 20.3321 2.02251L23.3252 4.15638H1.85776C0.82567 4.15638 0 4.70706 0 5.3954C0 6.08375 0.82567 6.63443 1.85776 6.63443H23.4284L20.4353 8.7683C19.7129 9.25014 19.8161 10.0073 20.5385 10.4892C20.8482 10.6957 21.3642 10.8333 21.777 10.8333C22.2931 10.8333 22.7059 10.6957 23.1188 10.4892L28.3824 6.77209C29.3113 5.94608 29.3113 4.84473 28.2792 4.08755Z" fill="#45525B"/>
</svg>
